<svg 
 xmlns="http://www.w3.org/2000/svg"
 xmlns:xlink="http://www.w3.org/1999/xlink"
 width="77px" height="62px">
<path fill-rule="evenodd"  opacity="0.161" fill="rgb(21, 26, 97)"
 d="M30.067,0.010 C27.677,1.463 24.709,3.333 21.164,5.625 C17.618,7.917 14.266,10.705 11.106,13.988 C8.023,17.197 5.402,20.845 3.245,24.930 C1.086,29.015 0.008,33.541 0.008,38.505 C0.008,45.532 1.433,51.204 4.285,55.519 C7.136,59.834 11.876,61.991 18.505,61.991 C22.743,61.991 26.078,60.596 28.506,57.803 C30.934,55.010 32.148,52.006 32.148,48.792 C32.148,44.278 30.778,40.854 28.043,38.519 C25.307,36.186 21.549,35.018 16.771,35.018 L11.222,35.018 C11.684,31.053 12.494,27.812 13.650,25.294 C14.806,22.778 16.462,20.374 18.621,18.086 C20.933,15.647 23.206,13.683 25.442,12.194 C27.677,10.708 30.605,8.934 34.229,6.874 L30.067,0.010 ZM72.843,0.010 C70.453,1.463 67.485,3.333 63.940,5.625 C60.395,7.917 57.042,10.705 53.882,13.988 C50.799,17.197 48.178,20.845 46.021,24.930 C43.862,29.015 42.784,33.541 42.784,38.505 C42.784,45.532 44.209,51.204 47.061,55.519 C49.912,59.834 54.652,61.991 61.281,61.991 C65.519,61.991 68.854,60.596 71.282,57.803 C73.710,55.010 74.924,52.006 74.924,48.792 C74.924,44.278 73.554,40.854 70.819,38.519 C68.083,36.186 64.325,35.018 59.547,35.018 L53.998,35.018 C54.460,31.053 55.250,27.830 56.368,25.351 C57.484,22.873 59.161,20.450 61.397,18.086 C63.709,15.647 65.982,13.683 68.218,12.194 C70.453,10.708 73.381,8.934 77.005,6.874 L72.843,0.010 Z"/>
</svg>